<svg width="87" height="87" viewBox="0 0 87 87" fill="none" xmlns="http://www.w3.org/2000/svg">
<path d="M3.25 83.25V74.36C3.25 64.54 11.21 56.58 21.03 56.58H38.81C48.63 56.58 56.59 64.54 56.59 74.36V83.25M61.03 3.83002C68.9 5.84002 74.4 12.93 74.4 21.05C74.4 29.17 68.9 36.26 61.03 38.27M83.25 83.25V74.36C83.21 66.29 77.73 59.27 69.92 57.25M47.7 21.03C47.7 30.85 39.74 38.81 29.92 38.81C20.1 38.81 12.14 30.85 12.14 21.03C12.14 11.21 20.1 3.25 29.92 3.25C39.74 3.25 47.7 11.21 47.7 21.03Z" stroke="white" stroke-width="6.5" stroke-linecap="round" stroke-linejoin="round"/>
</svg>
